# xmcd
#
# Track frame offsets:
#	150
#	14562
#	26207
#	46240
#	63752
#	77030
#	92247
#	108997
#	126927
#	139722
#	152365
#	165525
#	183700
#	217445
#	231010
#	247495
#
# Disc length: 3488 seconds
#
# Revision: 0
# Processed by: cddbd v1.5.1PL0 Copyright (c) Steve Scherf et al.
# Submitted via: dBpowerAMP V4.0
#
DISCID=e40d9e10
DTITLE=Vários - Peão Nativa FM 95,3
DYEAR=2004
DGENRE=Country
TTITLE0=Cara de Boi - Gino and Geno
TTITLE1=Festa Louca (Mi Vida Loca (My Crazy Life)) - Edson and Hudson
TTITLE2=Pout-Pourri (Apanhado) - A) Pé Direito, Pé Esquerdo - B) O Vagabundo (Giramond) - João Pedro and Cristiano
TTITLE3=Nóis Tropica, mas não Cai - Rick and Renner
TTITLE4=Aconteceu comigo (ÃH ÃH ÃH) - Delley and Dorivan
TTITLE5=Não tô nem aí - Rio Negro and Solimões
TTITLE6=Karatê - Ao Vivo - Ney and Nando
TTITLE7=Poup-Pourri Galera Felicidade - A) Ô Trem Bão - B) A Lua - Zezé di Camargo and Luciano
TTITLE8=A Viola Tiniu - Diogo and Marcel
TTITLE9=Só dou Carona prá quem deu prá mim - Teodoro and Sampaio
TTITLE10=Sai da Frente - Paulinho Texas and Macedo
TTITLE11=Trovejou mas não Choveu - Marcelinho di Lima
TTITLE12=Pout-Pourri - A) Rosto Molhado - B) Pode Passar o Rodo - C) Peão Apaixonado - Daniel
TTITLE13=Tá Nervoso... Vai Pescar - Ataide and Alexandre
TTITLE14=A Turma do Zódio Roxo - Jad and Jerferson
TTITLE15=Fogo no Salão - Guto and Nando
EXTD=
EXTT0=
EXTT1=
EXTT2=
EXTT3=
EXTT4=
EXTT5=
EXTT6=
EXTT7=
EXTT8=
EXTT9=
EXTT10=
EXTT11=
EXTT12=
EXTT13=
EXTT14=
EXTT15=
PLAYORDER=
